# Generated By Simlab Soft 'www.simlab-soft.com' 
mtllib body_15.mtl


g Body_22
usemtl Mtl10
v -1.64787 0.475411 1.71854
v -1.64891 0.475407 1.71853
v -1.64686 0.475145 1.71857
v -1.64992 0.475133 1.71853
v -1.64595 0.474627 1.71861
v -1.65082 0.474609 1.71854
v -1.64521 0.473892 1.71865
v -1.64469 0.472991 1.71871
v -1.64441 0.471984 1.71876
v -1.65036 0.4717 1.71869
v -1.65088 0.471699 1.71868
v -1.64986 0.471567 1.71871
v -1.65139 0.471562 1.71868
v -1.6494 0.471308 1.71872
v -1.65184 0.471299 1.71869
v -1.64441 0.470941 1.71881
v -1.64903 0.470941 1.71875
v -1.65221 0.470929 1.7187
v -1.64877 0.47049 1.71877
v -1.65247 0.470477 1.71872
v -1.64863 0.469987 1.7188
v -1.6526 0.469972 1.71875
v -1.64468 0.469933 1.71886
v -1.64863 0.469466 1.71883
v -1.6526 0.469451 1.71877
v -1.6452 0.469028 1.71889
v -1.64877 0.468961 1.71885
v -1.65246 0.468948 1.7188
v -1.64903 0.468509 1.71887
v -1.6522 0.468497 1.71882
v -1.64593 0.468287 1.71892
v -1.64939 0.468139 1.71888
v -1.65183 0.46813 1.71885
v -1.64984 0.467876 1.71889
v -1.65138 0.467871 1.71887
v -1.65035 0.467739 1.71889
v -1.65087 0.467738 1.71888
v -1.68529 0.444739 1.71955
v -1.68581 0.444737 1.71954
v -1.68478 0.444606 1.71956
v -1.68631 0.4446 1.71954
v -1.68433 0.444346 1.71958
v -1.68676 0.444337 1.71954
v -1.69023 0.444189 1.71951
v -1.68396 0.443979 1.7196
v -1.68713 0.443967 1.71956
v -1.6837 0.443528 1.71963
v -1.68739 0.443515 1.71958
v -1.69096 0.443448 1.71953
v -1.68356 0.443025 1.71965
v -1.68752 0.443011 1.7196
v -1.69148 0.442543 1.71957
v -1.68356 0.442504 1.71968
v -1.68752 0.442489 1.71963
v -1.68369 0.442 1.7197
v -1.68739 0.441986 1.71965
v -1.68395 0.441547 1.71972
v -1.68712 0.441535 1.71968
v -1.69175 0.441535 1.71962
v -1.68432 0.441177 1.71973
v -1.68675 0.441168 1.7197
v -1.68477 0.440914 1.71974
v -1.6863 0.440909 1.71972
v -1.68527 0.440778 1.71974
v -1.6858 0.440776 1.71973
v -1.69174 0.440492 1.71967
v -1.69147 0.439486 1.71972
v -1.69095 0.438584 1.71977
v -1.68534 0.437868 1.71988
v -1.69021 0.43785 1.71982
v -1.68624 0.437343 1.7199
v -1.6893 0.437331 1.71986
v -1.68725 0.437069 1.7199
v -1.68829 0.437065 1.71988
v -1.64593 0.468287 1.71892
v -1.68534 0.437868 1.71988
v -1.64582 0.467894 1.71093
v -1.68523 0.437474 1.71189
v -1.64776 0.475018 1.71055
v -1.6488 0.475014 1.71054
v -1.64675 0.474752 1.71058
v -1.64981 0.47474 1.71054
v -1.64584 0.474233 1.71062
v -1.65071 0.474215 1.71055
v -1.6451 0.473499 1.71066
v -1.64458 0.472597 1.71072
v -1.6443 0.471591 1.71077
v -1.65025 0.471307 1.7107
v -1.65077 0.471305 1.7107
v -1.64975 0.471174 1.71072
v -1.65128 0.471169 1.7107
v -1.64929 0.470915 1.71073
v -1.65173 0.470906 1.7107
v -1.6443 0.470548 1.71082
v -1.64892 0.470548 1.71076
v -1.6521 0.470536 1.71072
v -1.64866 0.470097 1.71078
v -1.65236 0.470083 1.71073
v -1.64853 0.469594 1.71081
v -1.65249 0.469579 1.71076
v -1.64457 0.46954 1.71087
v -1.64852 0.469072 1.71084
v -1.65249 0.469058 1.71078
v -1.64509 0.468635 1.7109
v -1.64866 0.468568 1.71086
v -1.65235 0.468555 1.71081
v -1.64892 0.468116 1.71088
v -1.65209 0.468104 1.71083
v -1.64582 0.467894 1.71093
v -1.64929 0.467746 1.71089
v -1.65172 0.467737 1.71086
v -1.64974 0.467483 1.7109
v -1.65127 0.467478 1.71088
v -1.65024 0.467346 1.7109
v -1.65076 0.467344 1.71089
v -1.68518 0.444345 1.71156
v -1.6857 0.444344 1.71155
v -1.68467 0.444212 1.71157
v -1.6862 0.444207 1.71155
v -1.68422 0.443953 1.71159
v -1.68665 0.443944 1.71156
v -1.69012 0.443796 1.71152
v -1.68385 0.443586 1.71161
v -1.68702 0.443574 1.71157
v -1.68359 0.443135 1.71164
v -1.68728 0.443122 1.71159
v -1.69085 0.443055 1.71154
v -1.68345 0.442632 1.71166
v -1.68742 0.442617 1.71161
v -1.69137 0.44215 1.71158
v -1.68345 0.442111 1.71169
v -1.68741 0.442096 1.71164
v -1.68358 0.441606 1.71171
v -1.68728 0.441593 1.71166
v -1.68384 0.441154 1.71173
v -1.68702 0.441142 1.71169
v -1.69164 0.441142 1.71163
v -1.68421 0.440784 1.71174
v -1.68665 0.440775 1.71171
v -1.68466 0.440521 1.71175
v -1.68619 0.440516 1.71173
v -1.68517 0.440385 1.71175
v -1.68569 0.440383 1.71174
v -1.69164 0.440099 1.71168
v -1.69136 0.439092 1.71173
v -1.69084 0.438191 1.71178
v -1.68523 0.437474 1.71189
v -1.6901 0.437456 1.71183
v -1.68613 0.43695 1.71191
v -1.68919 0.436938 1.71187
v -1.68714 0.436676 1.71191
v -1.68818 0.436672 1.71189
vn -0.013532 0.0491398 0.9987
vn -0.013532 0.0491398 0.9987
vn -0.013532 0.0491398 0.9987
vn -0.013532 0.0491398 0.9987
vn -0.013532 0.0491398 0.9987
vn -0.013532 0.0491398 0.9987
vn -0.013532 0.0491398 0.9987
vn -0.013532 0.0491398 0.9987
vn -0.013532 0.0491398 0.9987
vn -0.013532 0.0491398 0.9987
vn -0.013532 0.0491398 0.9987
vn -0.013532 0.0491398 0.9987
vn -0.013532 0.0491398 0.9987
vn -0.013532 0.0491398 0.9987
vn -0.013532 0.0491398 0.9987
vn -0.013532 0.0491398 0.9987
vn -0.013532 0.0491398 0.9987
vn -0.013532 0.0491398 0.9987
vn -0.013532 0.0491398 0.9987
vn -0.013532 0.0491398 0.9987
vn -0.013532 0.0491398 0.9987
vn -0.013532 0.0491398 0.9987
vn -0.013532 0.0491398 0.9987
vn -0.013532 0.0491398 0.9987
vn -0.013532 0.0491398 0.9987
vn -0.013532 0.0491398 0.9987
vn -0.013532 0.0491398 0.9987
vn -0.013532 0.0491398 0.9987
vn -0.013532 0.0491398 0.9987
vn -0.013532 0.0491398 0.9987
vn -0.013532 0.0491398 0.9987
vn -0.013532 0.0491398 0.9987
vn -0.013532 0.0491398 0.9987
vn -0.013532 0.0491398 0.9987
vn -0.013532 0.0491398 0.9987
vn -0.013532 0.0491398 0.9987
vn -0.013532 0.0491398 0.9987
vn -0.013532 0.0491398 0.9987
vn -0.013532 0.0491398 0.9987
vn -0.013532 0.0491398 0.9987
vn -0.013532 0.0491398 0.9987
vn -0.013532 0.0491398 0.9987
vn -0.013532 0.0491398 0.9987
vn -0.013532 0.0491398 0.9987
vn -0.013532 0.0491398 0.9987
vn -0.013532 0.0491398 0.9987
vn -0.013532 0.0491398 0.9987
vn -0.013532 0.0491398 0.9987
vn -0.013532 0.0491398 0.9987
vn -0.013532 0.0491398 0.9987
vn -0.013532 0.0491398 0.9987
vn -0.013532 0.0491398 0.9987
vn -0.013532 0.0491398 0.9987
vn -0.013532 0.0491398 0.9987
vn -0.013532 0.0491398 0.9987
vn -0.013532 0.0491398 0.9987
vn -0.013532 0.0491398 0.9987
vn -0.013532 0.0491398 0.9987
vn -0.013532 0.0491398 0.9987
vn -0.013532 0.0491398 0.9987
vn -0.013532 0.0491398 0.9987
vn -0.013532 0.0491398 0.9987
vn -0.013532 0.0491398 0.9987
vn -0.013532 0.0491398 0.9987
vn -0.013532 0.0491398 0.9987
vn -0.013532 0.0491398 0.9987
vn -0.013532 0.0491398 0.9987
vn -0.013532 0.0491398 0.9987
vn -0.013532 0.0491398 0.9987
vn -0.013532 0.0491398 0.9987
vn -0.013532 0.0491398 0.9987
vn -0.013532 0.0491398 0.9987
vn -0.013532 0.0491398 0.9987
vn -0.013532 0.0491398 0.9987
vn 0.61112 -0.790132 0.0471579
vn 0.61112 -0.790132 0.0471579
vn 0.61112 -0.790132 0.0471579
vn 0.61112 -0.790132 0.0471579
vn 0.013532 -0.0491398 -0.9987
vn 0.013532 -0.0491398 -0.9987
vn 0.013532 -0.0491398 -0.9987
vn 0.013532 -0.0491398 -0.9987
vn 0.013532 -0.0491398 -0.9987
vn 0.013532 -0.0491398 -0.9987
vn 0.013532 -0.0491398 -0.9987
vn 0.013532 -0.0491398 -0.9987
vn 0.013532 -0.0491398 -0.9987
vn 0.013532 -0.0491398 -0.9987
vn 0.013532 -0.0491398 -0.9987
vn 0.013532 -0.0491398 -0.9987
vn 0.013532 -0.0491398 -0.9987
vn 0.013532 -0.0491398 -0.9987
vn 0.013532 -0.0491398 -0.9987
vn 0.013532 -0.0491398 -0.9987
vn 0.013532 -0.0491398 -0.9987
vn 0.013532 -0.0491398 -0.9987
vn 0.013532 -0.0491398 -0.9987
vn 0.013532 -0.0491398 -0.9987
vn 0.013532 -0.0491398 -0.9987
vn 0.013532 -0.0491398 -0.9987
vn 0.013532 -0.0491398 -0.9987
vn 0.013532 -0.0491398 -0.9987
vn 0.013532 -0.0491398 -0.9987
vn 0.013532 -0.0491398 -0.9987
vn 0.013532 -0.0491398 -0.9987
vn 0.013532 -0.0491398 -0.9987
vn 0.013532 -0.0491398 -0.9987
vn 0.013532 -0.0491398 -0.9987
vn 0.013532 -0.0491398 -0.9987
vn 0.013532 -0.0491398 -0.9987
vn 0.013532 -0.0491398 -0.9987
vn 0.013532 -0.0491398 -0.9987
vn 0.013532 -0.0491398 -0.9987
vn 0.013532 -0.0491398 -0.9987
vn 0.013532 -0.0491398 -0.9987
vn 0.013532 -0.0491398 -0.9987
vn 0.013532 -0.0491398 -0.9987
vn 0.013532 -0.0491398 -0.9987
vn 0.013532 -0.0491398 -0.9987
vn 0.013532 -0.0491398 -0.9987
vn 0.013532 -0.0491398 -0.9987
vn 0.013532 -0.0491398 -0.9987
vn 0.013532 -0.0491398 -0.9987
vn 0.013532 -0.0491398 -0.9987
vn 0.013532 -0.0491398 -0.9987
vn 0.013532 -0.0491398 -0.9987
vn 0.013532 -0.0491398 -0.9987
vn 0.013532 -0.0491398 -0.9987
vn 0.013532 -0.0491398 -0.9987
vn 0.013532 -0.0491398 -0.9987
vn 0.013532 -0.0491398 -0.9987
vn 0.013532 -0.0491398 -0.9987
vn 0.013532 -0.0491398 -0.9987
vn 0.013532 -0.0491398 -0.9987
vn 0.013532 -0.0491398 -0.9987
vn 0.013532 -0.0491398 -0.9987
vn 0.013532 -0.0491398 -0.9987
vn 0.013532 -0.0491398 -0.9987
vn 0.013532 -0.0491398 -0.9987
vn 0.013532 -0.0491398 -0.9987
vn 0.013532 -0.0491398 -0.9987
vn 0.013532 -0.0491398 -0.9987
vn 0.013532 -0.0491398 -0.9987
vn 0.013532 -0.0491398 -0.9987
vn 0.013532 -0.0491398 -0.9987
vn 0.013532 -0.0491398 -0.9987
vn 0.013532 -0.0491398 -0.9987
vn 0.013532 -0.0491398 -0.9987
vn 0.013532 -0.0491398 -0.9987
vn 0.013532 -0.0491398 -0.9987
vn 0.013532 -0.0491398 -0.9987
vn 0.013532 -0.0491398 -0.9987
vt 0.924857 1
vt 0.902852 0.9999
vt 0.94613 0.993128
vt 0.881613 0.992835
vt 0.965221 0.979754
vt 0.86259 0.979288
vt 0.98083 0.960788
vt 0.991891 0.937522
vt 0.997651 0.911543
vt 0.872279 0.904218
vt 0.861275 0.904168
vt 0.882915 0.900782
vt 0.850657 0.900636
vt 0.892461 0.894095
vt 0.841144 0.893862
vt 0.997717 0.884621
vt 0.900265 0.884612
vt 0.833388 0.884308
vt 0.905795 0.872979
vt 0.827916 0.872625
vt 0.908676 0.85999
vt 0.8251 0.85961
vt 0.992087 0.85859
vt 0.908708 0.846528
vt 0.825134 0.846149
vt 0.981143 0.835224
vt 0.905893 0.833513
vt 0.828014 0.833159
vt 0.900421 0.82183
vt 0.833544 0.821526
vt 0.965629 0.816117
vt 0.892665 0.812276
vt 0.841348 0.812043
vt 0.883153 0.805502
vt 0.850894 0.805356
vt 0.872534 0.80197
vt 0.861531 0.80192
vt 0.136187 0.208228
vt 0.125184 0.208178
vt 0.146823 0.204792
vt 0.114565 0.204645
vt 0.15637 0.198105
vt 0.105052 0.197872
vt 0.0320879 0.194031
vt 0.164173 0.188621
vt 0.0972965 0.188318
vt 0.169703 0.176989
vt 0.0918243 0.176635
vt 0.0165747 0.174924
vt 0.172584 0.163999
vt 0.0890078 0.16362
vt 0.00563043 0.151558
vt 0.172616 0.150538
vt 0.0890418 0.150158
vt 0.169801 0.137523
vt 0.0919223 0.137169
vt 0.164329 0.12584
vt 0.0974522 0.125536
vt 0 0.125527
vt 0.156573 0.116286
vt 0.105256 0.116053
vt 0.147061 0.109512
vt 0.114802 0.109366
vt 0.136442 0.10598
vt 0.125439 0.10593
vt 6.65803e-05 0.098605
vt 0.00582641 0.0726258
vt 0.0168875 0.0493603
vt 0.135128 0.0308602
vt 0.032495 0.030394
vt 0.116104 0.0173125
vt 0.0515872 0.0170194
vt 0.0948656 0.0102479
vt 0.0728602 0.0101479
vt 0.965629 0.895644
vt 0.135128 0.998548
vt 0.967911 0.0417628
vt 0.137409 0.144666
vt 0.0728615 0.989852
vt 0.0948669 0.989752
vt 0.0515872 0.982981
vt 0.116105 0.982688
vt 0.0324962 0.969606
vt 0.135129 0.96914
vt 0.0168888 0.95064
vt 0.00582766 0.927374
vt 6.78366e-05 0.901395
vt 0.12544 0.89407
vt 0.136442 0.89402
vt 0.114803 0.890634
vt 0.147062 0.890488
vt 0.105257 0.883947
vt 0.156574 0.883714
vt 0 0.874473
vt 0.0974535 0.874464
vt 0.16433 0.87416
vt 0.0919236 0.862831
vt 0.169802 0.862477
vt 0.089043 0.849842
vt 0.172618 0.849462
vt 0.00563169 0.848442
vt 0.0890091 0.83638
vt 0.172585 0.836001
vt 0.016576 0.825076
vt 0.0918243 0.823365
vt 0.169704 0.823011
vt 0.0972977 0.811682
vt 0.164175 0.811379
vt 0.0320892 0.805969
vt 0.105054 0.802128
vt 0.15637 0.801895
vt 0.114566 0.795355
vt 0.146825 0.795208
vt 0.125185 0.791822
vt 0.136188 0.791772
vt 0.861532 0.19808
vt 0.872535 0.19803
vt 0.850895 0.194644
vt 0.883154 0.194497
vt 0.841349 0.187957
vt 0.892666 0.187724
vt 0.965631 0.183883
vt 0.833545 0.178474
vt 0.900422 0.17817
vt 0.828016 0.166841
vt 0.905894 0.166487
vt 0.981144 0.164776
vt 0.825135 0.153851
vt 0.90871 0.153472
vt 0.992088 0.14141
vt 0.825101 0.14039
vt 0.908677 0.14001
vt 0.827916 0.127375
vt 0.905796 0.127021
vt 0.83339 0.115692
vt 0.900266 0.115388
vt 0.997719 0.115379
vt 0.841146 0.106138
vt 0.892461 0.105905
vt 0.850658 0.0993642
vt 0.882917 0.0992176
vt 0.861277 0.0958319
vt 0.87228 0.0957819
vt 0.997652 0.088457
vt 0.991891 0.0624779
vt 0.980831 0.0392124
vt 0.862591 0.0207123
vt 0.965222 0.0202461
vt 0.881614 0.00716453
vt 0.946131 0.00687147
vt 0.902853 9.99628e-05
vt 0.924858 0
f 53/53/53 37/37/37 50/50/50 
f 37/37/37 35/35/35 50/50/50 
f 50/50/50 35/35/35 33/33/33 
f 66/66/66 67/67/67 56/56/56 
f 67/67/67 58/58/58 56/56/56 
f 29/29/29 32/32/32 31/31/31 
f 32/32/32 34/34/34 31/31/31 
f 31/31/31 34/34/34 69/69/69 
f 34/34/34 36/36/36 69/69/69 
f 69/69/69 36/36/36 37/37/37 
f 53/53/53 55/55/55 37/37/37 
f 55/55/55 57/57/57 37/37/37 
f 37/37/37 57/57/57 69/69/69 
f 57/57/57 60/60/60 69/69/69 
f 66/66/66 56/56/56 59/59/59 
f 56/56/56 54/54/54 59/59/59 
f 59/59/59 54/54/54 52/52/52 
f 54/54/54 51/51/51 52/52/52 
f 52/52/52 51/51/51 49/49/49 
f 49/49/49 51/51/51 44/44/44 
f 51/51/51 48/48/48 44/44/44 
f 44/44/44 48/48/48 46/46/46 
f 60/60/60 62/62/62 69/69/69 
f 62/62/62 64/64/64 69/69/69 
f 69/69/69 64/64/64 71/71/71 
f 64/64/64 65/65/65 71/71/71 
f 71/71/71 65/65/65 73/73/73 
f 65/65/65 63/63/63 73/73/73 
f 22/22/22 44/44/44 25/25/25 
f 44/44/44 28/28/28 25/25/25 
f 67/67/67 68/68/68 58/58/58 
f 68/68/68 70/70/70 58/58/58 
f 58/58/58 70/70/70 61/61/61 
f 70/70/70 72/72/72 61/61/61 
f 61/61/61 72/72/72 63/63/63 
f 72/72/72 74/74/74 63/63/63 
f 63/63/63 74/74/74 73/73/73 
f 9/9/9 8/8/8 19/19/19 
f 8/8/8 17/17/17 19/19/19 
f 9/9/9 19/19/19 16/16/16 
f 19/19/19 21/21/21 16/16/16 
f 16/16/16 21/21/21 23/23/23 
f 21/21/21 24/24/24 23/23/23 
f 23/23/23 24/24/24 26/26/26 
f 26/26/26 24/24/24 31/31/31 
f 24/24/24 27/27/27 31/31/31 
f 31/31/31 27/27/27 29/29/29 
f 46/46/46 43/43/43 44/44/44 
f 43/43/43 41/41/41 44/44/44 
f 44/44/44 41/41/41 28/28/28 
f 41/41/41 39/39/39 28/28/28 
f 28/28/28 39/39/39 38/38/38 
f 38/38/38 40/40/40 28/28/28 
f 40/40/40 42/42/42 28/28/28 
f 28/28/28 42/42/42 30/30/30 
f 42/42/42 45/45/45 30/30/30 
f 30/30/30 45/45/45 33/33/33 
f 45/45/45 47/47/47 33/33/33 
f 33/33/33 47/47/47 50/50/50 
f 22/22/22 20/20/20 44/44/44 
f 20/20/20 18/18/18 44/44/44 
f 44/44/44 18/18/18 6/6/6 
f 18/18/18 15/15/15 6/6/6 
f 15/15/15 13/13/13 6/6/6 
f 13/13/13 11/11/11 6/6/6 
f 6/6/6 11/11/11 4/4/4 
f 11/11/11 10/10/10 4/4/4 
f 4/4/4 10/10/10 2/2/2 
f 10/10/10 12/12/12 2/2/2 
f 8/8/8 7/7/7 17/17/17 
f 7/7/7 5/5/5 17/17/17 
f 17/17/17 5/5/5 14/14/14 
f 5/5/5 3/3/3 14/14/14 
f 14/14/14 3/3/3 12/12/12 
f 3/3/3 1/1/1 12/12/12 
f 12/12/12 1/1/1 2/2/2 
f 75/75/75 76/76/76 77/77/77 
f 76/76/76 78/78/78 77/77/77 
f 121/121/121 122/122/122 119/119/119 
f 122/122/122 84/84/84 119/119/119 
f 119/119/119 84/84/84 117/117/117 
f 84/84/84 116/116/116 117/117/117 
f 142/142/142 140/140/140 147/147/147 
f 88/88/88 89/89/89 84/84/84 
f 89/89/89 91/91/91 84/84/84 
f 95/95/95 86/86/86 97/97/97 
f 86/86/86 87/87/87 97/97/97 
f 97/97/97 87/87/87 99/99/99 
f 113/113/113 115/115/115 125/125/125 
f 87/87/87 94/94/94 99/99/99 
f 94/94/94 101/101/101 99/99/99 
f 99/99/99 101/101/101 102/102/102 
f 101/101/101 104/104/104 102/102/102 
f 102/102/102 104/104/104 105/105/105 
f 104/104/104 109/109/109 105/105/105 
f 105/105/105 109/109/109 107/107/107 
f 92/92/92 83/83/83 95/95/95 
f 83/83/83 85/85/85 95/95/95 
f 95/95/95 85/85/85 86/86/86 
f 84/84/84 82/82/82 88/88/88 
f 82/82/82 80/80/80 88/88/88 
f 88/88/88 80/80/80 90/90/90 
f 80/80/80 79/79/79 90/90/90 
f 90/90/90 79/79/79 92/92/92 
f 79/79/79 81/81/81 92/92/92 
f 92/92/92 81/81/81 83/83/83 
f 121/121/121 124/124/124 122/122/122 
f 124/124/124 126/126/126 122/122/122 
f 122/122/122 126/126/126 127/127/127 
f 126/126/126 129/129/129 127/127/127 
f 127/127/127 129/129/129 130/130/130 
f 129/129/129 132/132/132 130/130/130 
f 142/142/142 147/147/147 143/143/143 
f 125/125/125 109/109/109 128/128/128 
f 109/109/109 131/131/131 128/128/128 
f 91/91/91 93/93/93 84/84/84 
f 93/93/93 96/96/96 84/84/84 
f 84/84/84 96/96/96 116/116/116 
f 96/96/96 98/98/98 116/116/116 
f 116/116/116 98/98/98 100/100/100 
f 136/136/136 145/145/145 134/134/134 
f 145/145/145 144/144/144 134/134/134 
f 134/134/134 144/144/144 132/132/132 
f 144/144/144 137/137/137 132/132/132 
f 132/132/132 137/137/137 130/130/130 
f 139/139/139 148/148/148 136/136/136 
f 148/148/148 146/146/146 136/136/136 
f 136/136/136 146/146/146 145/145/145 
f 147/147/147 149/149/149 143/143/143 
f 149/149/149 151/151/151 143/143/143 
f 143/143/143 151/151/151 141/141/141 
f 151/151/151 152/152/152 141/141/141 
f 141/141/141 152/152/152 139/139/139 
f 152/152/152 150/150/150 139/139/139 
f 139/139/139 150/150/150 148/148/148 
f 140/140/140 138/138/138 147/147/147 
f 138/138/138 135/135/135 147/147/147 
f 147/147/147 135/135/135 109/109/109 
f 135/135/135 133/133/133 109/109/109 
f 109/109/109 133/133/133 131/131/131 
f 100/100/100 103/103/103 116/116/116 
f 103/103/103 106/106/106 116/116/116 
f 116/116/116 106/106/106 118/118/118 
f 106/106/106 120/120/120 118/118/118 
f 115/115/115 114/114/114 125/125/125 
f 114/114/114 112/112/112 125/125/125 
f 125/125/125 112/112/112 109/109/109 
f 112/112/112 110/110/110 109/109/109 
f 109/109/109 110/110/110 107/107/107 
f 120/120/120 106/106/106 123/123/123 
f 106/106/106 108/108/108 123/123/123 
f 123/123/123 108/108/108 125/125/125 
f 108/108/108 111/111/111 125/125/125 
f 125/125/125 111/111/111 113/113/113 
