# Generated By Simlab Soft 'www.simlab-soft.com' 
mtllib body_3.mtl


g Body_12
usemtl Mtl10
v -3.4505 0.46868 2.977
v -3.4705 0.46868 2.977
v -3.4505 0.35868 2.977
v -3.4705 0.35868 2.977
v -3.292 0.35868 3.683
v -3.372 0.35868 3.683
v -3.372 0.35868 3.613
v -3.292 0.35868 3.61
v -3.372 0.35868 3.61
v -3.45199 0.35868 3.52333
v -3.4505 0.35868 3.522
v -3.353 0.35868 2.977
v -3.372 0.35868 2.977
v -3.4505 0.35868 2.977
v -3.4705 0.35868 2.977
v -3.353 0.35868 2.917
v -3.412 0.35868 2.917
v -3.4705 0.35868 2.917
v -3.372 0.46868 2.977
v -3.372 0.46868 3.61
v -3.372 0.35868 2.977
v -3.372 0.35868 3.61
v -3.353 0.46868 2.977
v -3.372 0.46868 2.977
v -3.353 0.35868 2.977
v -3.372 0.35868 2.977
v -3.353 0.46868 2.917
v -3.353 0.46868 2.977
v -3.353 0.35868 2.917
v -3.353 0.35868 2.977
v -3.353 0.46868 2.917
v -3.412 0.46868 2.917
v -3.39776 0.466806 2.917
v -3.3845 0.461311 2.917
v -3.37311 0.452571 2.917
v -3.36437 0.44118 2.917
v -3.35887 0.427915 2.917
v -3.357 0.41368 2.917
v -3.35887 0.399445 2.917
v -3.36437 0.38618 2.917
v -3.37311 0.374789 2.917
v -3.3845 0.366049 2.917
v -3.39776 0.360554 2.917
v -3.353 0.35868 2.917
v -3.412 0.35868 2.917
v -3.412 0.46868 2.917
v -3.412 0.46868 1.797
v -3.39776 0.466806 2.917
v -3.42624 0.466806 2.917
v -3.39776 0.466806 1.797
v -3.42624 0.466806 1.797
v -3.3845 0.461311 2.917
v -3.4395 0.461311 2.917
v -3.3845 0.461311 1.797
v -3.4395 0.461311 1.797
v -3.37311 0.452571 2.917
v -3.45089 0.452571 2.917
v -3.37311 0.452571 1.797
v -3.45089 0.452571 1.797
v -3.36437 0.44118 2.917
v -3.45963 0.44118 2.917
v -3.36437 0.44118 1.797
v -3.45963 0.44118 1.797
v -3.35887 0.427915 2.917
v -3.46513 0.427915 2.917
v -3.35887 0.427915 1.797
v -3.46513 0.427915 1.797
v -3.467 0.41368 1.797
v -3.357 0.41368 1.797
v -3.467 0.41368 2.917
v -3.357 0.41368 2.917
v -3.35887 0.399445 2.917
v -3.46513 0.399445 2.917
v -3.35887 0.399445 1.797
v -3.46513 0.399445 1.797
v -3.36437 0.38618 2.917
v -3.45963 0.38618 2.917
v -3.36437 0.38618 1.797
v -3.45963 0.38618 1.797
v -3.37311 0.374789 2.917
v -3.45089 0.374789 2.917
v -3.37311 0.374789 1.797
v -3.45089 0.374789 1.797
v -3.3845 0.366049 2.917
v -3.4395 0.366049 2.917
v -3.3845 0.366049 1.797
v -3.4395 0.366049 1.797
v -3.39776 0.360554 2.917
v -3.42624 0.360554 2.917
v -3.39776 0.360554 1.797
v -3.42624 0.360554 1.797
v -3.412 0.35868 2.917
v -3.412 0.35868 1.797
v -3.412 0.46868 1.797
v -3.39776 0.466806 1.797
v -3.42624 0.466806 1.797
v -3.3845 0.461311 1.797
v -3.4395 0.461311 1.797
v -3.37311 0.452571 1.797
v -3.45089 0.452571 1.797
v -3.36437 0.44118 1.797
v -3.45963 0.44118 1.797
v -3.35887 0.427915 1.797
v -3.46513 0.427915 1.797
v -3.467 0.41368 1.797
v -3.357 0.41368 1.797
v -3.412 0.41368 1.797
v -3.35887 0.399445 1.797
v -3.46513 0.399445 1.797
v -3.36437 0.38618 1.797
v -3.45963 0.38618 1.797
v -3.37311 0.374789 1.797
v -3.45089 0.374789 1.797
v -3.3845 0.366049 1.797
v -3.4395 0.366049 1.797
v -3.39776 0.360554 1.797
v -3.42624 0.360554 1.797
v -3.412 0.35868 1.797
v -3.412 0.46868 2.917
v -3.4705 0.46868 2.917
v -3.42624 0.466806 2.917
v -3.4395 0.461311 2.917
v -3.45089 0.452571 2.917
v -3.45963 0.44118 2.917
v -3.46513 0.427915 2.917
v -3.467 0.41368 2.917
v -3.46513 0.399445 2.917
v -3.45963 0.38618 2.917
v -3.45089 0.374789 2.917
v -3.4395 0.366049 2.917
v -3.42624 0.360554 2.917
v -3.412 0.35868 2.917
v -3.4705 0.35868 2.917
v -3.4705 0.46868 2.977
v -3.4705 0.46868 2.917
v -3.4705 0.35868 2.977
v -3.4705 0.35868 2.917
v -3.292 0.46868 3.683
v -3.372 0.46868 3.683
v -3.372 0.46868 3.613
v -3.292 0.46868 3.61
v -3.372 0.46868 3.61
v -3.45199 0.46868 3.52333
v -3.4505 0.46868 3.522
v -3.353 0.46868 2.977
v -3.372 0.46868 2.977
v -3.4505 0.46868 2.977
v -3.4705 0.46868 2.977
v -3.353 0.46868 2.917
v -3.412 0.46868 2.917
v -3.4705 0.46868 2.917
v -3.4505 0.46868 3.522
v -3.4505 0.46868 2.977
v -3.4505 0.35868 3.522
v -3.4505 0.35868 2.977
v -3.4505 0.35868 3.522
v -3.45199 0.35868 3.52333
v -3.4505 0.46868 3.522
v -3.45199 0.46868 3.52333
v -3.45199 0.35868 3.52333
v -3.372 0.35868 3.613
v -3.45199 0.46868 3.52333
v -3.372 0.46868 3.613
v -3.372 0.35868 3.613
v -3.372 0.35868 3.683
v -3.372 0.46868 3.613
v -3.372 0.46868 3.683
v -3.372 0.35868 3.683
v -3.292 0.35868 3.683
v -3.372 0.46868 3.683
v -3.292 0.46868 3.683
v -3.292 0.35868 3.683
v -3.292 0.35868 3.61
v -3.292 0.46868 3.683
v -3.292 0.46868 3.61
v -3.292 0.35868 3.61
v -3.372 0.35868 3.61
v -3.292 0.46868 3.61
v -3.372 0.46868 3.61
v -3.3845 0.461311 1.797
v -3.3845 0.461311 1.797
v -3.3845 0.461311 2.917
v -3.4395 0.461311 1.797
v -3.4395 0.461311 2.917
v -3.4395 0.461311 2.917
v -3.4395 0.366049 1.797
v -3.4395 0.366049 1.797
v -3.4395 0.366049 2.917
v -3.3845 0.366049 1.797
v -3.3845 0.366049 2.917
v -3.3845 0.366049 2.917
vn 1.22461e-16 -2.9959e-16 1
vn 1.22461e-16 -2.9959e-16 1
vn 1.22461e-16 -2.9959e-16 1
vn 1.22461e-16 -2.9959e-16 1
vn -8.28736e-16 -1 -3.05311e-16
vn -8.28736e-16 -1 -3.05311e-16
vn -8.28736e-16 -1 -3.05311e-16
vn -8.28736e-16 -1 -3.05311e-16
vn -8.28736e-16 -1 -3.05311e-16
vn -8.28736e-16 -1 -3.05311e-16
vn -8.28736e-16 -1 -3.05311e-16
vn -8.28736e-16 -1 -3.05311e-16
vn -8.28736e-16 -1 -3.05311e-16
vn -8.28736e-16 -1 -3.05311e-16
vn -8.28736e-16 -1 -3.05311e-16
vn -8.28736e-16 -1 -3.05311e-16
vn -8.28736e-16 -1 -3.05311e-16
vn -8.28736e-16 -1 -3.05311e-16
vn 1 -8.26244e-16 -1.11499e-16
vn 1 -8.26244e-16 -1.11499e-16
vn 1 -8.26244e-16 -1.11499e-16
vn 1 -8.26244e-16 -1.11499e-16
vn 1.22461e-16 -2.9959e-16 1
vn 1.22461e-16 -2.9959e-16 1
vn 1.22461e-16 -2.9959e-16 1
vn 1.22461e-16 -2.9959e-16 1
vn 1 -8.26244e-16 -1.22461e-16
vn 1 -8.26244e-16 -1.22461e-16
vn 1 -8.26244e-16 -1.22461e-16
vn 1 -8.26244e-16 -1.22461e-16
vn -1.22461e-16 2.9959e-16 -1
vn -1.22461e-16 2.9959e-16 -1
vn -1.22461e-16 2.9959e-16 -1
vn -1.22461e-16 2.9959e-16 -1
vn -1.22461e-16 2.9959e-16 -1
vn -1.22461e-16 2.9959e-16 -1
vn -1.22461e-16 2.9959e-16 -1
vn -1.22461e-16 2.9959e-16 -1
vn -1.22461e-16 2.9959e-16 -1
vn -1.22461e-16 2.9959e-16 -1
vn -1.22461e-16 2.9959e-16 -1
vn -1.22461e-16 2.9959e-16 -1
vn -1.22461e-16 2.9959e-16 -1
vn -1.22461e-16 2.9959e-16 -1
vn -1.22461e-16 2.9959e-16 -1
vn 8.89968e-16 1 3.05311e-16
vn 8.89968e-16 1 3.05311e-16
vn 0.258819 0.965926 2.02845e-16
vn -0.258819 0.965926 3.8697e-16
vn 0.258819 0.965926 2.02845e-16
vn -0.258819 0.965926 3.8697e-16
vn 0.5 0.866025 8.65579e-17
vn -0.5 0.866025 4.42257e-16
vn 0.5 0.866025 8.65579e-17
vn -0.5 0.866025 4.42257e-16
vn 0.707107 0.707107 -3.56307e-17
vn -0.707107 0.707107 4.67406e-16
vn 0.707107 0.707107 -3.56307e-17
vn -0.707107 0.707107 4.67406e-16
vn 0.866025 0.5 -1.5539e-16
vn -0.866025 0.5 4.60701e-16
vn 0.866025 0.5 -1.5539e-16
vn -0.866025 0.5 4.60701e-16
vn 0.965926 0.258819 -2.6456e-16
vn -0.965926 0.258819 4.22601e-16
vn 0.965926 0.258819 -2.6456e-16
vn -0.965926 0.258819 4.22601e-16
vn -1 1.3928e-15 3.55701e-16
vn 1 -8.26244e-16 -3.55701e-16
vn -1 1.3928e-15 3.55701e-16
vn 1 -8.26244e-16 -3.55701e-16
vn 0.965926 -0.258819 -4.22601e-16
vn -0.965926 -0.258819 2.6456e-16
vn 0.965926 -0.258819 -4.22601e-16
vn -0.965926 -0.258819 2.6456e-16
vn 0.866025 -0.5 -4.60701e-16
vn -0.866025 -0.5 1.5539e-16
vn 0.866025 -0.5 -4.60701e-16
vn -0.866025 -0.5 1.5539e-16
vn 0.707107 -0.707107 -4.67406e-16
vn -0.707107 -0.707107 3.56307e-17
vn 0.707107 -0.707107 -4.67406e-16
vn -0.707107 -0.707107 3.56307e-17
vn 0.5 -0.866025 -4.42257e-16
vn -0.5 -0.866025 -8.65579e-17
vn 0.5 -0.866025 -4.42257e-16
vn -0.5 -0.866025 -8.65579e-17
vn 0.258819 -0.965926 -3.8697e-16
vn -0.258819 -0.965926 -2.02845e-16
vn 0.258819 -0.965926 -3.8697e-16
vn -0.258819 -0.965926 -2.02845e-16
vn -1.01243e-15 -1 -3.05311e-16
vn -1.01243e-15 -1 -3.05311e-16
vn -3.55701e-16 2.9959e-16 -1
vn -3.55701e-16 2.9959e-16 -1
vn -3.55701e-16 2.9959e-16 -1
vn -3.55701e-16 2.9959e-16 -1
vn -3.55701e-16 2.9959e-16 -1
vn -3.55701e-16 2.9959e-16 -1
vn -3.55701e-16 2.9959e-16 -1
vn -3.55701e-16 2.9959e-16 -1
vn -3.55701e-16 2.9959e-16 -1
vn -3.55701e-16 2.9959e-16 -1
vn -3.55701e-16 2.9959e-16 -1
vn -3.55701e-16 2.9959e-16 -1
vn -3.55701e-16 2.9959e-16 -1
vn -3.55701e-16 2.9959e-16 -1
vn -3.55701e-16 2.9959e-16 -1
vn -3.55701e-16 2.9959e-16 -1
vn -3.55701e-16 2.9959e-16 -1
vn -3.55701e-16 2.9959e-16 -1
vn -3.55701e-16 2.9959e-16 -1
vn -3.55701e-16 2.9959e-16 -1
vn -3.55701e-16 2.9959e-16 -1
vn -3.55701e-16 2.9959e-16 -1
vn -3.55701e-16 2.9959e-16 -1
vn -3.55701e-16 2.9959e-16 -1
vn -3.55701e-16 2.9959e-16 -1
vn -1.22461e-16 2.9959e-16 -1
vn -1.22461e-16 2.9959e-16 -1
vn -1.22461e-16 2.9959e-16 -1
vn -1.22461e-16 2.9959e-16 -1
vn -1.22461e-16 2.9959e-16 -1
vn -1.22461e-16 2.9959e-16 -1
vn -1.22461e-16 2.9959e-16 -1
vn -1.22461e-16 2.9959e-16 -1
vn -1.22461e-16 2.9959e-16 -1
vn -1.22461e-16 2.9959e-16 -1
vn -1.22461e-16 2.9959e-16 -1
vn -1.22461e-16 2.9959e-16 -1
vn -1.22461e-16 2.9959e-16 -1
vn -1.22461e-16 2.9959e-16 -1
vn -1.22461e-16 2.9959e-16 -1
vn -1 8.26244e-16 1.22461e-16
vn -1 8.26244e-16 1.22461e-16
vn -1 8.26244e-16 1.22461e-16
vn -1 8.26244e-16 1.22461e-16
vn 8.28736e-16 1 3.05311e-16
vn 8.28736e-16 1 3.05311e-16
vn 8.28736e-16 1 3.05311e-16
vn 8.28736e-16 1 3.05311e-16
vn 8.28736e-16 1 3.05311e-16
vn 8.28736e-16 1 3.05311e-16
vn 8.28736e-16 1 3.05311e-16
vn 8.28736e-16 1 3.05311e-16
vn 8.28736e-16 1 3.05311e-16
vn 8.28736e-16 1 3.05311e-16
vn 8.28736e-16 1 3.05311e-16
vn 8.28736e-16 1 3.05311e-16
vn 8.28736e-16 1 3.05311e-16
vn 8.28736e-16 1 3.05311e-16
vn -1 8.26244e-16 2.37048e-16
vn -1 8.26244e-16 2.37048e-16
vn -1 8.26244e-16 2.37048e-16
vn -1 8.26244e-16 2.37048e-16
vn -0.665679 7.73578e-16 -0.746239
vn -0.665679 7.73578e-16 -0.746239
vn -0.665679 7.73578e-16 -0.746239
vn -0.665679 7.73578e-16 -0.746239
vn -0.746239 4.17144e-16 0.665679
vn -0.746239 4.17144e-16 0.665679
vn -0.746239 4.17144e-16 0.665679
vn -0.746239 4.17144e-16 0.665679
vn -1 8.26244e-16 3.20715e-16
vn -1 8.26244e-16 3.20715e-16
vn -1 8.26244e-16 3.20715e-16
vn -1 8.26244e-16 3.20715e-16
vn 1.22461e-16 -2.9959e-16 1
vn 1.22461e-16 -2.9959e-16 1
vn 1.22461e-16 -2.9959e-16 1
vn 1.22461e-16 -2.9959e-16 1
vn 1 -8.26244e-16 -1.22461e-16
vn 1 -8.26244e-16 -1.22461e-16
vn 1 -8.26244e-16 -1.22461e-16
vn 1 -8.26244e-16 -1.22461e-16
vn -1.22461e-16 2.9959e-16 -1
vn -1.22461e-16 2.9959e-16 -1
vn -1.22461e-16 2.9959e-16 -1
vn -1.22461e-16 2.9959e-16 -1
vn 0.5 0.866025 8.65579e-17
vn 0.5 0.866025 8.65579e-17
vn 0.5 0.866025 8.65579e-17
vn -0.5 0.866025 4.42257e-16
vn -0.5 0.866025 4.42257e-16
vn -0.5 0.866025 4.42257e-16
vn -0.5 -0.866025 -8.65579e-17
vn -0.5 -0.866025 -8.65579e-17
vn -0.5 -0.866025 -8.65579e-17
vn 0.5 -0.866025 -4.42257e-16
vn 0.5 -0.866025 -4.42257e-16
vn 0.5 -0.866025 -4.42257e-16
vt 0.112045 1
vt 0 1
vt 0.112045 0
vt 0 0
vt 0 1
vt 0 0.551821
vt 0.0371155 0.551821
vt 0.0387085 1
vt 0.0387085 0.551821
vt 0.0846621 0.103684
vt 0.085368 0.112045
vt 0.374339 0.658263
vt 0.374339 0.551821
vt 0.374339 0.112045
vt 0.374339 0
vt 0.406152 0.658263
vt 0.406152 0.327731
vt 0.406152 0
vt 0.374339 1
vt 0.0387085 1
vt 0.374339 0
vt 0.0387085 0
vt 0.658263 1
vt 0.551821 1
vt 0.658263 0
vt 0.551821 0
vt 0.406152 1
vt 0.374339 1
vt 0.406152 0
vt 0.374339 0
vt 0.341737 1
vt 0.672269 1
vt 0.592521 0.982963
vt 0.518207 0.933013
vt 0.454393 0.853553
vt 0.405426 0.75
vt 0.374645 0.62941
vt 0.364146 0.5
vt 0.374645 0.37059
vt 0.405426 0.25
vt 0.454393 0.146447
vt 0.518207 0.0669873
vt 0.592521 0.0170371
vt 0.341737 0
vt 0.672269 0
vt 0.593848 0.327731
vt 0 0.327731
vt 0.593848 0.407479
vt 0.593848 0.247983
vt 0 0.407479
vt 0 0.247983
vt 0.593848 0.481793
vt 0.593848 0.17367
vt 0 0.481793
vt 0 0.17367
vt 0.406152 0.853553
vt 0.593848 0.853553
vt 1 0.853553
vt 0 0.853553
vt 0.406152 0.75
vt 0.593848 0.75
vt 1 0.75
vt 0 0.75
vt 0.406152 0.62941
vt 0.593848 0.62941
vt 1 0.62941
vt 0 0.62941
vt 0 0.5
vt 1 0.5
vt 0.593848 0.5
vt 0.406152 0.5
vt 0.406152 0.37059
vt 0.593848 0.37059
vt 1 0.37059
vt 0 0.37059
vt 0.406152 0.25
vt 0.593848 0.25
vt 1 0.25
vt 0 0.25
vt 0.406152 0.146447
vt 0.593848 0.146447
vt 1 0.146447
vt 0 0.146447
vt 0.406152 0.481793
vt 0.406152 0.17367
vt 1 0.481793
vt 1 0.17367
vt 0.406152 0.407479
vt 0.406152 0.247983
vt 1 0.407479
vt 1 0.247983
vt 0.406152 0.327731
vt 1 0.327731
vt 0.672269 1
vt 0.592521 0.982963
vt 0.752017 0.982963
vt 0.518207 0.933013
vt 0.82633 0.933013
vt 0.454393 0.853553
vt 0.890145 0.853553
vt 0.405426 0.75
vt 0.939111 0.75
vt 0.374645 0.62941
vt 0.969893 0.62941
vt 0.980392 0.5
vt 0.364146 0.5
vt 0.672269 0.5
vt 0.374645 0.37059
vt 0.969893 0.37059
vt 0.405426 0.25
vt 0.939111 0.25
vt 0.454393 0.146447
vt 0.890145 0.146447
vt 0.518207 0.0669873
vt 0.82633 0.0669873
vt 0.592521 0.0170371
vt 0.752017 0.0170371
vt 0.672269 0
vt 0.672269 1
vt 1 1
vt 0.752017 0.982963
vt 0.82633 0.933013
vt 0.890145 0.853553
vt 0.939111 0.75
vt 0.969893 0.62941
vt 0.980392 0.5
vt 0.969893 0.37059
vt 0.939111 0.25
vt 0.890145 0.146447
vt 0.82633 0.0669873
vt 0.752017 0.0170371
vt 0.672269 0
vt 1 0
vt 0.625661 1
vt 0.593848 1
vt 0.625661 0
vt 0.593848 0
vt 1 1
vt 1 0.551821
vt 0.962884 0.551821
vt 0.961291 1
vt 0.961291 0.551821
vt 0.915338 0.103684
vt 0.914632 0.112045
vt 0.625661 0.658263
vt 0.625661 0.551821
vt 0.625661 0.112045
vt 0.625661 0
vt 0.593848 0.658263
vt 0.593848 0.327731
vt 0.593848 0
vt 0.914632 1
vt 0.625661 1
vt 0.914632 0
vt 0.625661 0
vt 0.887955 0
vt 0.896316 0
vt 0.887955 1
vt 0.896316 1
vt 0.103684 0
vt 0.551821 0
vt 0.103684 1
vt 0.551821 1
vt 0.962884 0
vt 1 0
vt 0.962884 1
vt 1 1
vt 0.551821 0
vt 1 0
vt 0.551821 1
vt 1 1
vt 0 0
vt 0.0387085 0
vt 0 1
vt 0.0387085 1
vt 0 0
vt 0.448179 0
vt 0 1
vt 0.448179 1
vt 1 0.933013
vt 1 0.933013
vt 0.406152 0.933013
vt 0 0.933013
vt 0.593848 0.933013
vt 0.593848 0.933013
vt 0 0.0669873
vt 0 0.0669873
vt 0.593848 0.0669873
vt 1 0.0669873
vt 0.406152 0.0669873
vt 0.406152 0.0669873
f 1/1/1 2/2/2 3/3/3 
f 2/2/2 4/4/4 3/3/3 
f 14/14/14 15/15/15 18/18/18 
f 9/9/9 8/8/8 7/7/7 
f 8/8/8 5/5/5 7/7/7 
f 7/7/7 5/5/5 6/6/6 
f 16/16/16 12/12/12 17/17/17 
f 12/12/12 13/13/13 17/17/17 
f 7/7/7 10/10/10 9/9/9 
f 10/10/10 11/11/11 9/9/9 
f 9/9/9 11/11/11 13/13/13 
f 11/11/11 14/14/14 13/13/13 
f 13/13/13 14/14/14 17/17/17 
f 14/14/14 18/18/18 17/17/17 
f 19/19/19 20/20/20 21/21/21 
f 20/20/20 22/22/22 21/21/21 
f 23/23/23 24/24/24 25/25/25 
f 24/24/24 26/26/26 25/25/25 
f 27/27/27 28/28/28 29/29/29 
f 28/28/28 30/30/30 29/29/29 
f 44/44/44 45/45/45 43/43/43 
f 43/43/43 42/42/42 44/44/44 
f 42/42/42 41/41/41 44/44/44 
f 44/44/44 41/41/41 40/40/40 
f 36/36/36 35/35/35 31/31/31 
f 40/40/40 39/39/39 44/44/44 
f 39/39/39 38/38/38 44/44/44 
f 44/44/44 38/38/38 31/31/31 
f 38/38/38 37/37/37 31/31/31 
f 31/31/31 37/37/37 36/36/36 
f 35/35/35 34/34/34 31/31/31 
f 34/34/34 33/33/33 31/31/31 
f 31/31/31 33/33/33 32/32/32 
f 71/71/71 66/66/66 64/64/64 
f 66/66/66 62/62/62 64/64/64 
f 64/64/64 62/62/62 60/60/60 
f 62/62/62 58/58/58 60/60/60 
f 60/60/60 58/58/58 56/56/56 
f 58/58/58 180/180/180 56/56/56 
f 56/56/56 181/181/181 182/182/182 
f 54/54/54 50/50/50 52/52/52 
f 52/52/52 50/50/50 48/48/48 
f 50/50/50 47/47/47 48/48/48 
f 48/48/48 47/47/47 46/46/46 
f 47/47/47 51/51/51 46/46/46 
f 46/46/46 51/51/51 49/49/49 
f 51/51/51 55/55/55 49/49/49 
f 49/49/49 55/55/55 53/53/53 
f 183/183/183 59/59/59 184/184/184 
f 185/185/185 59/59/59 57/57/57 
f 59/59/59 63/63/63 57/57/57 
f 57/57/57 63/63/63 61/61/61 
f 63/63/63 67/67/67 61/61/61 
f 61/61/61 67/67/67 65/65/65 
f 67/67/67 68/68/68 65/65/65 
f 65/65/65 68/68/68 70/70/70 
f 68/68/68 75/75/75 70/70/70 
f 70/70/70 75/75/75 73/73/73 
f 75/75/75 79/79/79 73/73/73 
f 73/73/73 79/79/79 77/77/77 
f 79/79/79 83/83/83 77/77/77 
f 77/77/77 83/83/83 81/81/81 
f 83/83/83 186/186/186 81/81/81 
f 81/81/81 187/187/187 188/188/188 
f 87/87/87 91/91/91 85/85/85 
f 85/85/85 91/91/91 89/89/89 
f 91/91/91 93/93/93 89/89/89 
f 89/89/89 93/93/93 92/92/92 
f 93/93/93 90/90/90 92/92/92 
f 92/92/92 90/90/90 88/88/88 
f 90/90/90 86/86/86 88/88/88 
f 88/88/88 86/86/86 84/84/84 
f 189/189/189 82/82/82 190/190/190 
f 191/191/191 82/82/82 80/80/80 
f 82/82/82 78/78/78 80/80/80 
f 80/80/80 78/78/78 76/76/76 
f 78/78/78 74/74/74 76/76/76 
f 76/76/76 74/74/74 72/72/72 
f 74/74/74 69/69/69 72/72/72 
f 72/72/72 69/69/69 71/71/71 
f 69/69/69 66/66/66 71/71/71 
f 111/111/111 109/109/109 107/107/107 
f 109/109/109 105/105/105 107/107/107 
f 107/107/107 105/105/105 104/104/104 
f 117/117/117 115/115/115 107/107/107 
f 115/115/115 113/113/113 107/107/107 
f 107/107/107 113/113/113 111/111/111 
f 114/114/114 116/116/116 107/107/107 
f 116/116/116 118/118/118 107/107/107 
f 107/107/107 118/118/118 117/117/117 
f 108/108/108 110/110/110 107/107/107 
f 110/110/110 112/112/112 107/107/107 
f 107/107/107 112/112/112 114/114/114 
f 101/101/101 103/103/103 107/107/107 
f 103/103/103 106/106/106 107/107/107 
f 107/107/107 106/106/106 108/108/108 
f 95/95/95 97/97/97 107/107/107 
f 97/97/97 99/99/99 107/107/107 
f 107/107/107 99/99/99 101/101/101 
f 98/98/98 96/96/96 107/107/107 
f 96/96/96 94/94/94 107/107/107 
f 107/107/107 94/94/94 95/95/95 
f 104/104/104 102/102/102 107/107/107 
f 102/102/102 100/100/100 107/107/107 
f 107/107/107 100/100/100 98/98/98 
f 131/131/131 132/132/132 133/133/133 
f 120/120/120 119/119/119 121/121/121 
f 121/121/121 122/122/122 120/120/120 
f 122/122/122 123/123/123 120/120/120 
f 120/120/120 123/123/123 124/124/124 
f 128/128/128 129/129/129 133/133/133 
f 129/129/129 130/130/130 133/133/133 
f 133/133/133 130/130/130 131/131/131 
f 124/124/124 125/125/125 120/120/120 
f 125/125/125 126/126/126 120/120/120 
f 120/120/120 126/126/126 133/133/133 
f 126/126/126 127/127/127 133/133/133 
f 133/133/133 127/127/127 128/128/128 
f 134/134/134 135/135/135 136/136/136 
f 135/135/135 137/137/137 136/136/136 
f 146/146/146 145/145/145 149/149/149 
f 138/138/138 141/141/141 142/142/142 
f 151/151/151 148/148/148 150/150/150 
f 148/148/148 147/147/147 150/150/150 
f 144/144/144 142/142/142 147/147/147 
f 142/142/142 146/146/146 147/147/147 
f 147/147/147 146/146/146 150/150/150 
f 146/146/146 149/149/149 150/150/150 
f 144/144/144 143/143/143 142/142/142 
f 143/143/143 140/140/140 142/142/142 
f 142/142/142 140/140/140 138/138/138 
f 140/140/140 139/139/139 138/138/138 
f 152/152/152 153/153/153 154/154/154 
f 153/153/153 155/155/155 154/154/154 
f 156/156/156 157/157/157 158/158/158 
f 157/157/157 159/159/159 158/158/158 
f 160/160/160 161/161/161 162/162/162 
f 161/161/161 163/163/163 162/162/162 
f 164/164/164 165/165/165 166/166/166 
f 165/165/165 167/167/167 166/166/166 
f 168/168/168 169/169/169 170/170/170 
f 169/169/169 171/171/171 170/170/170 
f 172/172/172 173/173/173 174/174/174 
f 173/173/173 175/175/175 174/174/174 
f 176/176/176 177/177/177 178/178/178 
f 177/177/177 179/179/179 178/178/178 
