# Generated By Simlab Soft 'www.simlab-soft.com' 
mtllib body_13.mtl


g Body_20
usemtl Mtl10
v -1.68402 0.392919 1.72211
v -1.64251 0.365488 1.72402
v -1.68391 0.392526 1.71412
v -1.6424 0.365095 1.71603
v -1.64693 0.358824 1.72429
v -1.68843 0.386255 1.72238
v -1.64682 0.35843 1.7163
v -1.68833 0.385861 1.71439
v -1.68598 0.393575 1.72205
v -1.68702 0.393502 1.72204
v -1.68496 0.393376 1.72208
v -1.68801 0.393162 1.72205
v -1.68402 0.392919 1.72211
v -1.68888 0.392578 1.72206
v -1.68956 0.391791 1.72209
v -1.69002 0.390853 1.72213
v -1.68374 0.390022 1.72226
v -1.68426 0.389985 1.72225
v -1.68323 0.389922 1.72227
v -1.69022 0.389829 1.72218
v -1.68476 0.389815 1.72225
v -1.68276 0.389694 1.72229
v -1.68519 0.389523 1.72226
v -1.68237 0.389352 1.72231
v -1.68553 0.38913 1.72228
v -1.68208 0.38892 1.72234
v -1.69015 0.388789 1.72223
v -1.68576 0.388661 1.7223
v -1.68191 0.388427 1.72236
v -1.68586 0.388149 1.72232
v -1.68187 0.387907 1.72239
v -1.68981 0.387803 1.72229
v -1.68583 0.387629 1.72235
v -1.68197 0.387395 1.72241
v -1.68566 0.387136 1.72237
v -1.68922 0.386939 1.72234
v -1.6822 0.386926 1.72243
v -1.68536 0.386704 1.7224
v -1.68254 0.386532 1.72245
v -1.68497 0.386362 1.72242
v -1.68843 0.386255 1.72238
v -1.68297 0.386241 1.72245
v -1.6845 0.386133 1.72244
v -1.68347 0.386071 1.72246
v -1.68399 0.386034 1.72245
v -1.64695 0.365709 1.72395
v -1.64748 0.365672 1.72395
v -1.64644 0.36561 1.72396
v -1.64797 0.365502 1.72395
v -1.64251 0.365488 1.72402
v -1.64597 0.365381 1.72398
v -1.6484 0.365211 1.72396
v -1.64558 0.365039 1.724
v -1.64874 0.364817 1.72397
v -1.64172 0.364804 1.72407
v -1.64529 0.364607 1.72403
v -1.64897 0.364348 1.72399
v -1.64512 0.364114 1.72406
v -1.64114 0.36394 1.72412
v -1.64907 0.363836 1.72402
v -1.64508 0.363594 1.72408
v -1.64904 0.363316 1.72404
v -1.64518 0.363082 1.72411
v -1.6408 0.362954 1.72417
v -1.64887 0.362823 1.72407
v -1.64541 0.362613 1.72413
v -1.64858 0.362391 1.72409
v -1.64575 0.36222 1.72414
v -1.64818 0.362049 1.72412
v -1.64619 0.361928 1.72415
v -1.64073 0.361914 1.72422
v -1.64771 0.361821 1.72413
v -1.64668 0.361758 1.72415
v -1.6472 0.361721 1.72415
v -1.64093 0.36089 1.72427
v -1.64138 0.359952 1.72431
v -1.64207 0.359165 1.72434
v -1.64693 0.358824 1.72429
v -1.64293 0.358581 1.72436
v -1.64599 0.358367 1.72433
v -1.64392 0.358241 1.72436
v -1.64496 0.358168 1.72435
v -1.64695 0.365709 1.72395
v -1.64748 0.365672 1.72395
v -1.64644 0.36561 1.72396
v -1.64797 0.365502 1.72395
v -1.64597 0.365381 1.72398
v -1.64685 0.365316 1.71596
v -1.64737 0.365279 1.71596
v -1.64633 0.365217 1.71598
v -1.6484 0.365211 1.72396
v -1.64786 0.365109 1.71596
v -1.64558 0.365039 1.724
v -1.64586 0.364988 1.71599
v -1.64829 0.364818 1.71597
v -1.64874 0.364817 1.72397
v -1.64547 0.364646 1.71602
v -1.64529 0.364607 1.72403
v -1.64864 0.364424 1.71598
v -1.64897 0.364348 1.72399
v -1.64518 0.364214 1.71604
v -1.64512 0.364114 1.72406
v -1.64887 0.363955 1.716
v -1.64907 0.363836 1.72402
v -1.64501 0.363721 1.71607
v -1.64508 0.363594 1.72408
v -1.64896 0.363443 1.71603
v -1.64904 0.363316 1.72404
v -1.64497 0.363201 1.71609
v -1.64518 0.363082 1.72411
v -1.64893 0.362923 1.71605
v -1.64887 0.362823 1.72407
v -1.64507 0.362689 1.71612
v -1.64541 0.362613 1.72413
v -1.64876 0.36243 1.71608
v -1.64858 0.362391 1.72409
v -1.6453 0.36222 1.71614
v -1.64575 0.36222 1.72414
v -1.64818 0.362049 1.72412
v -1.64847 0.361998 1.7161
v -1.64619 0.361928 1.72415
v -1.64564 0.361826 1.71615
v -1.64771 0.361821 1.72413
v -1.64668 0.361758 1.72415
v -1.6472 0.361721 1.72415
v -1.64807 0.361656 1.71613
v -1.64608 0.361535 1.71616
v -1.6476 0.361427 1.71614
v -1.64657 0.361365 1.71616
v -1.64709 0.361328 1.71616
v -1.68587 0.393182 1.71406
v -1.68691 0.393109 1.71405
v -1.68485 0.392983 1.71409
v -1.6879 0.392769 1.71406
v -1.68391 0.392526 1.71412
v -1.68877 0.392185 1.71407
v -1.68945 0.391398 1.7141
v -1.68991 0.39046 1.71414
v -1.68364 0.389629 1.71427
v -1.68416 0.389592 1.71426
v -1.68312 0.389529 1.71428
v -1.69011 0.389436 1.71419
v -1.68465 0.389422 1.71427
v -1.68265 0.389301 1.7143
v -1.68508 0.38913 1.71427
v -1.68226 0.388959 1.71432
v -1.68543 0.388737 1.71429
v -1.68197 0.388527 1.71435
v -1.69004 0.388396 1.71424
v -1.68565 0.388268 1.71431
v -1.6818 0.388034 1.71437
v -1.68575 0.387756 1.71433
v -1.68176 0.387514 1.7144
v -1.6897 0.38741 1.7143
v -1.68572 0.387236 1.71436
v -1.68186 0.387002 1.71442
v -1.68555 0.386743 1.71438
v -1.68911 0.386545 1.71435
v -1.68209 0.386533 1.71444
v -1.68526 0.386311 1.71441
v -1.68243 0.386139 1.71446
v -1.68486 0.385969 1.71443
v -1.68833 0.385861 1.71439
v -1.68287 0.385847 1.71447
v -1.68439 0.38574 1.71445
v -1.68336 0.385677 1.71447
v -1.68388 0.385641 1.71446
v -1.64685 0.365316 1.71596
v -1.64737 0.365279 1.71596
v -1.64633 0.365217 1.71598
v -1.64786 0.365109 1.71596
v -1.6424 0.365095 1.71603
v -1.64586 0.364988 1.71599
v -1.64829 0.364818 1.71597
v -1.64547 0.364646 1.71602
v -1.64864 0.364424 1.71598
v -1.64161 0.364411 1.71608
v -1.64518 0.364214 1.71604
v -1.64887 0.363955 1.716
v -1.64501 0.363721 1.71607
v -1.64103 0.363547 1.71613
v -1.64896 0.363443 1.71603
v -1.64497 0.363201 1.71609
v -1.64893 0.362923 1.71605
v -1.64507 0.362689 1.71612
v -1.64069 0.362561 1.71618
v -1.64876 0.36243 1.71608
v -1.6453 0.36222 1.71614
v -1.64847 0.361998 1.7161
v -1.64564 0.361826 1.71615
v -1.64807 0.361656 1.71613
v -1.64608 0.361535 1.71616
v -1.64062 0.361521 1.71623
v -1.6476 0.361427 1.71614
v -1.64657 0.361365 1.71616
v -1.64709 0.361328 1.71616
v -1.64082 0.360497 1.71628
v -1.64127 0.359559 1.71632
v -1.64196 0.358772 1.71635
v -1.64682 0.35843 1.7163
v -1.64283 0.358188 1.71637
v -1.64588 0.357974 1.71634
v -1.64381 0.357848 1.71637
v -1.64485 0.357775 1.71636
v -1.64608 0.361535 1.71616
v -1.64619 0.361928 1.72415
v -1.64619 0.361928 1.72415
v -1.64586 0.364988 1.71599
v -1.64597 0.365381 1.72398
v -1.64586 0.364988 1.71599
v -1.64786 0.365109 1.71596
v -1.64797 0.365502 1.72395
v -1.64797 0.365502 1.72395
v -1.64807 0.361656 1.71613
v -1.64818 0.362049 1.72412
v -1.64807 0.361656 1.71613
vn 0.552105 0.833101 -0.0335109
vn 0.552105 0.833101 -0.0335109
vn 0.552105 0.833101 -0.0335109
vn 0.552105 0.833101 -0.0335109
vn -0.552105 -0.833101 0.0335109
vn -0.552105 -0.833101 0.0335109
vn -0.552105 -0.833101 0.0335109
vn -0.552105 -0.833101 0.0335109
vn -0.013532 0.0491398 0.9987
vn -0.013532 0.0491398 0.9987
vn -0.013532 0.0491398 0.9987
vn -0.013532 0.0491398 0.9987
vn -0.013532 0.0491398 0.9987
vn -0.013532 0.0491398 0.9987
vn -0.013532 0.0491398 0.9987
vn -0.013532 0.0491398 0.9987
vn -0.013532 0.0491398 0.9987
vn -0.013532 0.0491398 0.9987
vn -0.013532 0.0491398 0.9987
vn -0.013532 0.0491398 0.9987
vn -0.013532 0.0491398 0.9987
vn -0.013532 0.0491398 0.9987
vn -0.013532 0.0491398 0.9987
vn -0.013532 0.0491398 0.9987
vn -0.013532 0.0491398 0.9987
vn -0.013532 0.0491398 0.9987
vn -0.013532 0.0491398 0.9987
vn -0.013532 0.0491398 0.9987
vn -0.013532 0.0491398 0.9987
vn -0.013532 0.0491398 0.9987
vn -0.013532 0.0491398 0.9987
vn -0.013532 0.0491398 0.9987
vn -0.013532 0.0491398 0.9987
vn -0.013532 0.0491398 0.9987
vn -0.013532 0.0491398 0.9987
vn -0.013532 0.0491398 0.9987
vn -0.013532 0.0491398 0.9987
vn -0.013532 0.0491398 0.9987
vn -0.013532 0.0491398 0.9987
vn -0.013532 0.0491398 0.9987
vn -0.013532 0.0491398 0.9987
vn -0.013532 0.0491398 0.9987
vn -0.013532 0.0491398 0.9987
vn -0.013532 0.0491398 0.9987
vn -0.013532 0.0491398 0.9987
vn -0.013532 0.0491398 0.9987
vn -0.013532 0.0491398 0.9987
vn -0.013532 0.0491398 0.9987
vn -0.013532 0.0491398 0.9987
vn -0.013532 0.0491398 0.9987
vn -0.013532 0.0491398 0.9987
vn -0.013532 0.0491398 0.9987
vn -0.013532 0.0491398 0.9987
vn -0.013532 0.0491398 0.9987
vn -0.013532 0.0491398 0.9987
vn -0.013532 0.0491398 0.9987
vn -0.013532 0.0491398 0.9987
vn -0.013532 0.0491398 0.9987
vn -0.013532 0.0491398 0.9987
vn -0.013532 0.0491398 0.9987
vn -0.013532 0.0491398 0.9987
vn -0.013532 0.0491398 0.9987
vn -0.013532 0.0491398 0.9987
vn -0.013532 0.0491398 0.9987
vn -0.013532 0.0491398 0.9987
vn -0.013532 0.0491398 0.9987
vn -0.013532 0.0491398 0.9987
vn -0.013532 0.0491398 0.9987
vn -0.013532 0.0491398 0.9987
vn -0.013532 0.0491398 0.9987
vn -0.013532 0.0491398 0.9987
vn -0.013532 0.0491398 0.9987
vn -0.013532 0.0491398 0.9987
vn -0.013532 0.0491398 0.9987
vn -0.013532 0.0491398 0.9987
vn -0.013532 0.0491398 0.9987
vn -0.013532 0.0491398 0.9987
vn -0.013532 0.0491398 0.9987
vn -0.013532 0.0491398 0.9987
vn -0.013532 0.0491398 0.9987
vn -0.013532 0.0491398 0.9987
vn -0.013532 0.0491398 0.9987
vn -0.0613047 -0.996953 0.0482232
vn 0.199093 -0.97866 0.0508514
vn -0.317524 -0.947306 0.0423087
vn 0.445922 -0.893673 0.0500142
vn -0.552105 -0.833101 0.0335109
vn -0.0613047 -0.996953 0.0482232
vn 0.199093 -0.97866 0.0508514
vn -0.317524 -0.947306 0.0423087
vn 0.662363 -0.747784 0.0457685
vn 0.445922 -0.893673 0.0500142
vn -0.749061 -0.662121 0.0224294
vn -0.552105 -0.833101 0.0335109
vn 0.662363 -0.747784 0.0457685
vn 0.833665 -0.550934 0.0384039
vn -0.749061 -0.662121 0.0224294
vn -0.894969 -0.446019 0.00981938
vn 0.833665 -0.550934 0.0384039
vn 0.948154 -0.316539 0.028422
vn -0.894969 -0.446019 0.00981938
vn -0.979887 -0.199522 -0.00345983
vn 0.948154 -0.316539 0.028422
vn 0.998027 -0.0605725 0.0165033
vn -0.979887 -0.199522 -0.00345983
vn -0.998027 0.0605725 -0.0165033
vn 0.998027 -0.0605725 0.0165033
vn 0.979887 0.199522 0.00345983
vn -0.998027 0.0605725 -0.0165033
vn -0.948154 0.316539 -0.028422
vn 0.979887 0.199522 0.00345983
vn 0.894969 0.446019 -0.00981938
vn -0.948154 0.316539 -0.028422
vn -0.833665 0.550934 -0.0384039
vn 0.894969 0.446019 -0.00981938
vn 0.749061 0.662121 -0.0224294
vn -0.833665 0.550934 -0.0384039
vn -0.662363 0.747784 -0.0457685
vn 0.552105 0.833101 -0.0335109
vn 0.749061 0.662121 -0.0224294
vn -0.445922 0.893673 -0.0500142
vn -0.662363 0.747784 -0.0457685
vn 0.317524 0.947306 -0.0423087
vn -0.199093 0.97866 -0.0508514
vn 0.0613047 0.996953 -0.0482232
vn 0.552105 0.833101 -0.0335109
vn -0.445922 0.893673 -0.0500142
vn 0.317524 0.947306 -0.0423087
vn -0.199093 0.97866 -0.0508514
vn 0.0613047 0.996953 -0.0482232
vn 0.013532 -0.0491398 -0.9987
vn 0.013532 -0.0491398 -0.9987
vn 0.013532 -0.0491398 -0.9987
vn 0.013532 -0.0491398 -0.9987
vn 0.013532 -0.0491398 -0.9987
vn 0.013532 -0.0491398 -0.9987
vn 0.013532 -0.0491398 -0.9987
vn 0.013532 -0.0491398 -0.9987
vn 0.013532 -0.0491398 -0.9987
vn 0.013532 -0.0491398 -0.9987
vn 0.013532 -0.0491398 -0.9987
vn 0.013532 -0.0491398 -0.9987
vn 0.013532 -0.0491398 -0.9987
vn 0.013532 -0.0491398 -0.9987
vn 0.013532 -0.0491398 -0.9987
vn 0.013532 -0.0491398 -0.9987
vn 0.013532 -0.0491398 -0.9987
vn 0.013532 -0.0491398 -0.9987
vn 0.013532 -0.0491398 -0.9987
vn 0.013532 -0.0491398 -0.9987
vn 0.013532 -0.0491398 -0.9987
vn 0.013532 -0.0491398 -0.9987
vn 0.013532 -0.0491398 -0.9987
vn 0.013532 -0.0491398 -0.9987
vn 0.013532 -0.0491398 -0.9987
vn 0.013532 -0.0491398 -0.9987
vn 0.013532 -0.0491398 -0.9987
vn 0.013532 -0.0491398 -0.9987
vn 0.013532 -0.0491398 -0.9987
vn 0.013532 -0.0491398 -0.9987
vn 0.013532 -0.0491398 -0.9987
vn 0.013532 -0.0491398 -0.9987
vn 0.013532 -0.0491398 -0.9987
vn 0.013532 -0.0491398 -0.9987
vn 0.013532 -0.0491398 -0.9987
vn 0.013532 -0.0491398 -0.9987
vn 0.013532 -0.0491398 -0.9987
vn 0.013532 -0.0491398 -0.9987
vn 0.013532 -0.0491398 -0.9987
vn 0.013532 -0.0491398 -0.9987
vn 0.013532 -0.0491398 -0.9987
vn 0.013532 -0.0491398 -0.9987
vn 0.013532 -0.0491398 -0.9987
vn 0.013532 -0.0491398 -0.9987
vn 0.013532 -0.0491398 -0.9987
vn 0.013532 -0.0491398 -0.9987
vn 0.013532 -0.0491398 -0.9987
vn 0.013532 -0.0491398 -0.9987
vn 0.013532 -0.0491398 -0.9987
vn 0.013532 -0.0491398 -0.9987
vn 0.013532 -0.0491398 -0.9987
vn 0.013532 -0.0491398 -0.9987
vn 0.013532 -0.0491398 -0.9987
vn 0.013532 -0.0491398 -0.9987
vn 0.013532 -0.0491398 -0.9987
vn 0.013532 -0.0491398 -0.9987
vn 0.013532 -0.0491398 -0.9987
vn 0.013532 -0.0491398 -0.9987
vn 0.013532 -0.0491398 -0.9987
vn 0.013532 -0.0491398 -0.9987
vn 0.013532 -0.0491398 -0.9987
vn 0.013532 -0.0491398 -0.9987
vn 0.013532 -0.0491398 -0.9987
vn 0.013532 -0.0491398 -0.9987
vn 0.013532 -0.0491398 -0.9987
vn 0.013532 -0.0491398 -0.9987
vn 0.013532 -0.0491398 -0.9987
vn 0.013532 -0.0491398 -0.9987
vn 0.013532 -0.0491398 -0.9987
vn 0.013532 -0.0491398 -0.9987
vn 0.013532 -0.0491398 -0.9987
vn 0.013532 -0.0491398 -0.9987
vn 0.013532 -0.0491398 -0.9987
vn 0.013532 -0.0491398 -0.9987
vn -0.445922 0.893673 -0.0500142
vn -0.445922 0.893673 -0.0500142
vn -0.445922 0.893673 -0.0500142
vn -0.552105 -0.833101 0.0335109
vn -0.552105 -0.833101 0.0335109
vn -0.552105 -0.833101 0.0335109
vn 0.445922 -0.893673 0.0500142
vn 0.445922 -0.893673 0.0500142
vn 0.445922 -0.893673 0.0500142
vn 0.552105 0.833101 -0.0335109
vn 0.552105 0.833101 -0.0335109
vn 0.552105 0.833101 -0.0335109
vt 0.874991 0.781773
vt 0.0381441 0.967273
vt 0.872808 0.00673035
vt 0.0359618 0.19222
vt 0.872808 0.99327
vt 0.0359606 0.80778
vt 0.874991 0.218227
vt 0.0381441 0.0327382
vt 0.0854294 1
vt 0.0644298 0.997956
vt 0.106091 0.994453
vt 0.0445238 0.98846
vt 0.125009 0.981692
vt 0.0270693 0.97216
vt 0.0132546 0.950165
vt 0.00402206 0.923976
vt 0.130523 0.900752
vt 0.120022 0.89973
vt 0.140854 0.897978
vt 0 0.895376
vt 0.11007 0.894982
vt 0.150312 0.891598
vt 0.101342 0.886832
vt 0.158254 0.882046
vt 0.0944348 0.875835
vt 0.164138 0.869973
vt 0.00146246 0.866315
vt 0.0898192 0.86274
vt 0.167561 0.856203
vt 0.0878075 0.84844
vt 0.168293 0.841672
vt 0.00831089 0.838773
vt 0.0885394 0.833909
vt 0.166282 0.827372
vt 0.091963 0.820139
vt 0.0200778 0.814627
vt 0.161666 0.814277
vt 0.0978464 0.808066
vt 0.154759 0.80328
vt 0.105788 0.798514
vt 0.0359606 0.795523
vt 0.146031 0.79513
vt 0.115247 0.792134
vt 0.136078 0.790382
vt 0.125578 0.78936
vt 0.872239 0.221621
vt 0.86174 0.220599
vt 0.88257 0.218848
vt 0.851786 0.215851
vt 0.961856 0.215458
vt 0.892029 0.212467
vt 0.843059 0.207701
vt 0.89997 0.202915
vt 0.836152 0.196704
vt 0.97774 0.196354
vt 0.905854 0.190843
vt 0.831535 0.183609
vt 0.909278 0.177072
vt 0.989506 0.172208
vt 0.829525 0.169309
vt 0.910009 0.162541
vt 0.830255 0.154778
vt 0.907999 0.148241
vt 0.996354 0.144666
vt 0.83368 0.141008
vt 0.903382 0.135146
vt 0.839563 0.128935
vt 0.896474 0.124149
vt 0.847504 0.119383
vt 0.887748 0.115999
vt 0.997817 0.115605
vt 0.856964 0.113003
vt 0.877794 0.111251
vt 0.867295 0.110229
vt 0.993794 0.0870055
vt 0.984562 0.060816
vt 0.970747 0.0388214
vt 0.872808 0.0292887
vt 0.953293 0.0225208
vt 0.891725 0.0165283
vt 0.933388 0.013025
vt 0.912388 0.010981
vt 0.872239 0.96037
vt 0.86174 0.959861
vt 0.88257 0.961514
vt 0.851786 0.960023
vt 0.892029 0.963226
vt 0.874421 0.185327
vt 0.863922 0.184807
vt 0.884753 0.186472
vt 0.207701 0.960844
vt 0.853969 0.18498
vt 0.797085 0.965377
vt 0.894212 0.188172
vt 0.19672 0.185802
vt 0.196704 0.962278
vt 0.808066 0.190323
vt 0.809157 0.967828
vt 0.185723 0.187224
vt 0.183609 0.964209
vt 0.820139 0.192775
vt 0.822928 0.970396
vt 0.172628 0.189167
vt 0.169309 0.966522
vt 0.833909 0.195354
vt 0.837459 0.972928
vt 0.158328 0.19148
vt 0.154778 0.969054
vt 0.84844 0.197886
vt 0.851759 0.975241
vt 0.143797 0.194012
vt 0.141008 0.971633
vt 0.86274 0.200187
vt 0.864854 0.977184
vt 0.130027 0.196579
vt 0.128935 0.974085
vt 0.875835 0.20213
vt 0.875851 0.978606
vt 0.152496 0.976224
vt 0.117954 0.199031
vt 0.112252 0.979427
vt 0.886832 0.203564
vt 0.143036 0.977936
vt 0.122206 0.979589
vt 0.132705 0.97908
vt 0.150312 0.201182
vt 0.11007 0.204385
vt 0.140854 0.202882
vt 0.120022 0.204547
vt 0.130523 0.204038
vt 0.912388 0.989019
vt 0.933388 0.986975
vt 0.891726 0.983472
vt 0.953294 0.977479
vt 0.872808 0.970711
vt 0.970748 0.961179
vt 0.984563 0.939184
vt 0.993796 0.912994
vt 0.867295 0.889771
vt 0.877795 0.888749
vt 0.856964 0.886997
vt 0.997818 0.884395
vt 0.887748 0.884001
vt 0.847505 0.880617
vt 0.896474 0.875851
vt 0.839563 0.871065
vt 0.903382 0.864854
vt 0.83368 0.858992
vt 0.996354 0.855334
vt 0.907999 0.851759
vt 0.830256 0.845222
vt 0.91001 0.837459
vt 0.829525 0.830691
vt 0.989507 0.827792
vt 0.909278 0.822928
vt 0.831536 0.816391
vt 0.905854 0.809157
vt 0.97774 0.803646
vt 0.836152 0.803296
vt 0.899971 0.797085
vt 0.843059 0.792299
vt 0.892029 0.787533
vt 0.961856 0.784542
vt 0.851787 0.784149
vt 0.882571 0.781152
vt 0.86174 0.779401
vt 0.872239 0.778379
vt 0.125579 0.21064
vt 0.136078 0.209618
vt 0.115247 0.207866
vt 0.146031 0.20487
vt 0.0359618 0.204477
vt 0.105788 0.201486
vt 0.154759 0.19672
vt 0.0978464 0.191934
vt 0.161666 0.185723
vt 0.0200778 0.185373
vt 0.0919642 0.179861
vt 0.166283 0.172628
vt 0.0885394 0.166091
vt 0.00831089 0.161227
vt 0.168293 0.158328
vt 0.0878087 0.15156
vt 0.167561 0.143797
vt 0.0898192 0.13726
vt 0.00146366 0.133685
vt 0.164138 0.130027
vt 0.094436 0.124165
vt 0.158254 0.117954
vt 0.101343 0.113168
vt 0.150312 0.108402
vt 0.11007 0.105018
vt 0 0.104624
vt 0.140854 0.102022
vt 0.120022 0.10027
vt 0.130523 0.0992479
vt 0.00402206 0.0760244
vt 0.0132558 0.0498349
vt 0.0270693 0.0278404
vt 0.125009 0.0183076
vt 0.0445238 0.0115397
vt 0.106091 0.00554729
vt 0.0644298 0.00204393
vt 0.0854294 0
vt 0.894982 0.204385
vt 0.884001 0.979427
vt 0.884001 0.979427
vt 0.798514 0.188172
vt 0.787533 0.963226
vt 0.798514 0.188172
vt 0.20487 0.18498
vt 0.215851 0.960023
vt 0.215851 0.960023
vt 0.108402 0.201182
vt 0.119383 0.976224
vt 0.108402 0.201182
f 1/1/1 2/2/2 3/3/3 
f 2/2/2 4/4/4 3/3/3 
f 5/5/5 6/6/6 7/7/7 
f 6/6/6 8/8/8 7/7/7 
f 73/73/73 74/74/74 78/78/78 
f 74/74/74 72/72/72 78/78/78 
f 77/77/77 66/66/66 68/68/68 
f 77/77/77 76/76/76 66/66/66 
f 76/76/76 75/75/75 66/66/66 
f 66/66/66 75/75/75 63/63/63 
f 75/75/75 71/71/71 63/63/63 
f 63/63/63 71/71/71 61/61/61 
f 78/78/78 80/80/80 73/73/73 
f 80/80/80 82/82/82 73/73/73 
f 73/73/73 82/82/82 70/70/70 
f 82/82/82 81/81/81 70/70/70 
f 70/70/70 81/81/81 68/68/68 
f 81/81/81 79/79/79 68/68/68 
f 68/68/68 79/79/79 77/77/77 
f 40/40/40 41/41/41 43/43/43 
f 41/41/41 78/78/78 43/43/43 
f 43/43/43 78/78/78 45/45/45 
f 12/12/12 14/14/14 23/23/23 
f 14/14/14 25/25/25 23/23/23 
f 47/47/47 46/46/46 34/34/34 
f 14/14/14 15/15/15 25/25/25 
f 15/15/15 16/16/16 25/25/25 
f 25/25/25 16/16/16 28/28/28 
f 16/16/16 20/20/20 28/28/28 
f 28/28/28 20/20/20 30/30/30 
f 12/12/12 23/23/23 10/10/10 
f 23/23/23 21/21/21 10/10/10 
f 10/10/10 21/21/21 9/9/9 
f 21/21/21 18/18/18 9/9/9 
f 9/9/9 18/18/18 11/11/11 
f 72/72/72 69/69/69 78/78/78 
f 69/69/69 67/67/67 78/78/78 
f 78/78/78 67/67/67 45/45/45 
f 67/67/67 65/65/65 45/45/45 
f 45/45/45 65/65/65 62/62/62 
f 57/57/57 39/39/39 42/42/42 
f 47/47/47 34/34/34 49/49/49 
f 50/50/50 48/48/48 51/51/51 
f 40/40/40 38/38/38 41/41/41 
f 38/38/38 35/35/35 41/41/41 
f 41/41/41 35/35/35 36/36/36 
f 35/35/35 33/33/33 36/36/36 
f 36/36/36 33/33/33 32/32/32 
f 33/33/33 30/30/30 32/32/32 
f 32/32/32 30/30/30 27/27/27 
f 30/30/30 20/20/20 27/27/27 
f 46/46/46 48/48/48 34/34/34 
f 48/48/48 50/50/50 34/34/34 
f 34/34/34 50/50/50 31/31/31 
f 50/50/50 29/29/29 31/31/31 
f 42/42/42 44/44/44 57/57/57 
f 44/44/44 45/45/45 57/57/57 
f 57/57/57 45/45/45 60/60/60 
f 45/45/45 62/62/62 60/60/60 
f 39/39/39 57/57/57 37/37/37 
f 57/57/57 54/54/54 37/37/37 
f 37/37/37 54/54/54 34/34/34 
f 54/54/54 52/52/52 34/34/34 
f 34/34/34 52/52/52 49/49/49 
f 11/11/11 18/18/18 13/13/13 
f 18/18/18 17/17/17 13/13/13 
f 13/13/13 17/17/17 19/19/19 
f 51/51/51 53/53/53 50/50/50 
f 53/53/53 56/56/56 50/50/50 
f 50/50/50 56/56/56 55/55/55 
f 56/56/56 58/58/58 55/55/55 
f 55/55/55 58/58/58 59/59/59 
f 58/58/58 61/61/61 59/59/59 
f 59/59/59 61/61/61 64/64/64 
f 61/61/61 71/71/71 64/64/64 
f 19/19/19 22/22/22 13/13/13 
f 22/22/22 24/24/24 13/13/13 
f 13/13/13 24/24/24 50/50/50 
f 24/24/24 26/26/26 50/50/50 
f 50/50/50 26/26/26 29/29/29 
f 126/126/126 119/119/119 128/128/128 
f 119/119/119 123/123/123 128/128/128 
f 128/128/128 123/123/123 130/130/130 
f 123/123/123 125/125/125 130/130/130 
f 130/130/130 125/125/125 129/129/129 
f 125/125/125 124/124/124 129/129/129 
f 129/129/129 124/124/124 127/127/127 
f 124/124/124 121/121/121 127/127/127 
f 205/205/205 206/206/206 122/122/122 
f 207/207/207 118/118/118 122/122/122 
f 122/122/122 118/118/118 117/117/117 
f 118/118/118 114/114/114 117/117/117 
f 117/117/117 114/114/114 113/113/113 
f 114/114/114 110/110/110 113/113/113 
f 113/113/113 110/110/110 109/109/109 
f 110/110/110 106/106/106 109/109/109 
f 109/109/109 106/106/106 105/105/105 
f 106/106/106 102/102/102 105/105/105 
f 105/105/105 102/102/102 101/101/101 
f 102/102/102 98/98/98 101/101/101 
f 101/101/101 98/98/98 97/97/97 
f 98/98/98 93/93/93 97/97/97 
f 97/97/97 93/93/93 208/208/208 
f 93/93/93 209/209/209 210/210/210 
f 94/94/94 87/87/87 90/90/90 
f 87/87/87 85/85/85 90/90/90 
f 90/90/90 85/85/85 88/88/88 
f 85/85/85 83/83/83 88/88/88 
f 88/88/88 83/83/83 89/89/89 
f 83/83/83 84/84/84 89/89/89 
f 89/89/89 84/84/84 92/92/92 
f 84/84/84 86/86/86 92/92/92 
f 211/211/211 212/212/212 95/95/95 
f 213/213/213 91/91/91 95/95/95 
f 95/95/95 91/91/91 99/99/99 
f 91/91/91 96/96/96 99/99/99 
f 99/99/99 96/96/96 103/103/103 
f 96/96/96 100/100/100 103/103/103 
f 103/103/103 100/100/100 107/107/107 
f 100/100/100 104/104/104 107/107/107 
f 107/107/107 104/104/104 111/111/111 
f 104/104/104 108/108/108 111/111/111 
f 111/111/111 108/108/108 115/115/115 
f 108/108/108 112/112/112 115/115/115 
f 115/115/115 112/112/112 120/120/120 
f 112/112/112 116/116/116 120/120/120 
f 120/120/120 116/116/116 214/214/214 
f 116/116/116 215/215/215 216/216/216 
f 171/171/171 174/174/174 162/162/162 
f 171/171/171 162/162/162 169/169/169 
f 193/193/193 197/197/197 185/185/185 
f 197/197/197 188/188/188 185/185/185 
f 167/167/167 166/166/166 168/168/168 
f 168/168/168 166/166/166 170/170/170 
f 138/138/138 147/147/147 150/150/150 
f 197/197/197 198/198/198 188/188/188 
f 198/198/198 199/199/199 188/188/188 
f 188/188/188 199/199/199 190/190/190 
f 199/199/199 201/201/201 190/190/190 
f 190/190/190 201/201/201 192/192/192 
f 169/169/169 162/162/162 168/168/168 
f 162/162/162 165/165/165 168/168/168 
f 168/168/168 165/165/165 167/167/167 
f 172/172/172 175/175/175 173/173/173 
f 138/138/138 137/137/137 147/147/147 
f 137/137/137 136/136/136 147/147/147 
f 147/147/147 136/136/136 145/145/145 
f 136/136/136 134/134/134 145/145/145 
f 145/145/145 134/134/134 143/143/143 
f 166/166/166 164/164/164 170/170/170 
f 164/164/164 161/161/161 170/170/170 
f 170/170/170 161/161/161 173/173/173 
f 193/193/193 185/185/185 186/186/186 
f 185/185/185 183/183/183 186/186/186 
f 186/186/186 183/183/183 181/181/181 
f 183/183/183 180/180/180 181/181/181 
f 181/181/181 180/180/180 177/177/177 
f 177/177/177 180/180/180 172/172/172 
f 180/180/180 178/178/178 172/172/172 
f 172/172/172 178/178/178 175/175/175 
f 161/161/161 159/159/159 173/173/173 
f 159/159/159 156/156/156 173/173/173 
f 173/173/173 156/156/156 172/172/172 
f 156/156/156 153/153/153 172/172/172 
f 172/172/172 153/153/153 151/151/151 
f 151/151/151 148/148/148 172/172/172 
f 148/148/148 146/146/146 172/172/172 
f 172/172/172 146/146/146 135/135/135 
f 146/146/146 144/144/144 135/135/135 
f 144/144/144 141/141/141 135/135/135 
f 141/141/141 139/139/139 135/135/135 
f 135/135/135 139/139/139 133/133/133 
f 139/139/139 140/140/140 133/133/133 
f 133/133/133 140/140/140 131/131/131 
f 140/140/140 143/143/143 131/131/131 
f 131/131/131 143/143/143 132/132/132 
f 143/143/143 134/134/134 132/132/132 
f 163/163/163 158/158/158 155/155/155 
f 158/158/158 154/154/154 155/155/155 
f 155/155/155 154/154/154 152/152/152 
f 154/154/154 149/149/149 152/152/152 
f 152/152/152 149/149/149 150/150/150 
f 149/149/149 142/142/142 150/150/150 
f 150/150/150 142/142/142 138/138/138 
f 155/155/155 157/157/157 163/163/163 
f 157/157/157 160/160/160 163/163/163 
f 163/163/163 160/160/160 162/162/162 
f 184/184/184 187/187/187 163/163/163 
f 187/187/187 189/189/189 163/163/163 
f 163/163/163 189/189/189 200/200/200 
f 189/189/189 191/191/191 200/200/200 
f 191/191/191 194/194/194 200/200/200 
f 194/194/194 196/196/196 200/200/200 
f 200/200/200 196/196/196 202/202/202 
f 196/196/196 195/195/195 202/202/202 
f 202/202/202 195/195/195 204/204/204 
f 195/195/195 192/192/192 204/204/204 
f 204/204/204 192/192/192 203/203/203 
f 192/192/192 201/201/201 203/203/203 
f 174/174/174 176/176/176 162/162/162 
f 176/176/176 179/179/179 162/162/162 
f 162/162/162 179/179/179 163/163/163 
f 179/179/179 182/182/182 163/163/163 
f 163/163/163 182/182/182 184/184/184 
